<svg aria-hidden="true" style="width:0;height:0;position:absolute;overflow:hidden" xmlns="http://www.w3.org/2000/svg"><defs><symbol id="icon-magnify" viewBox="0 0 32 32"><path d="M6.8 1.867C3.333 3.867.133 8.667 0 12.4c-.133 7.733 8.933 14.667 15.733 12 3.2-1.2 4.133-.8 8.533 3.467 4 3.6 5.467 4.267 6.667 3.067s.533-2.667-3.067-6.667c-4.267-4.4-4.667-5.333-3.467-8.533 1.867-4.667-.933-11.2-5.867-13.733-4.533-2.4-7.6-2.4-11.733-.133zm11.867 4.8c3.467 3.467 3.467 8.533 0 12-1.467 1.467-4.133 2.667-6 2.667s-4.533-1.2-6-2.667C1.334 13.334 5.2 4 12.667 4c1.867 0 4.533 1.2 6 2.667z"/></symbol></defs></svg>